# xmcd CD database file
#
# Track frame offsets:
#	150
#	33041
#	55607
#	80294
#	99305
#	125958
#	148198
#	157339
#	184162
#	206830
#	228145
#
# Disc length: 3287 seconds
#
# Revision: 0
# Processed by: cddbd v1.5.2PL0 Copyright (c) Steve Scherf et al.
# Submitted via: CDex 1.51
#
DISCID=940cd50b
DTITLE=Wolfgang Muthspiel - Friendly Travelers with Brian Blade
DYEAR=2006
DGENRE=Jazz
TTITLE0=Gnadenwald
TTITLE1=Between the Beats
TTITLE2=End on Four
TTITLE3=Vallekilde
TTITLE4=Youssou
TTITLE5=Friendly Travelers
TTITLE6=Balladino
TTITLE7=Heavy Song
TTITLE8=Andrej Rubljow
TTITLE9=Cold Summer
TTITLE10=The Tuning of the Bells
EXTD=YEAR: 2006
EXTT0=
EXTT1=
EXTT2=
EXTT3=
EXTT4=
EXTT5=
EXTT6=
EXTT7=
EXTT8=
EXTT9=
EXTT10=
PLAYORDER=
